<svg width="932" height="28" viewBox="0 0 932 28" fill="none" xmlns="http://www.w3.org/2000/svg">
<g clip-path="url(#clip0_1417_3524)">
<path d="M233.393 217.824C233.393 212.236 233.393 217.824 233.393 207.703V194.231C233.393 184.5 233.393 190.088 233.393 184.5C233.393 178.911 233.393 184.5 233.393 173.994V160.522C233.393 150 233.393 155.588 233.393 150C233.393 144.412 233.393 150 233.393 140.286V126.814C233.393 116.5 233.393 122.089 233.393 116.5C233.393 110.912 233.393 116.5 233.393 106.577V93.1051C233.393 83 233.393 88.5883 233.393 83C233.393 77.4117 233.393 83 233.393 72.8683V59.3965C233.393 49 233.393 54.5882 233.393 49C233.393 43.4117 233.393 49 233.393 39.1597V25.6879C233.393 16.5 233.393 20.5882 233.393 15C233.393 9.41169 233.393 15 233.393 5.45105V0H227.937C227.937 5.58826 223.407 10.1184 217.819 10.1184C212.231 10.1184 207.7 5.58826 207.7 0H194.229C194.229 5.58826 189.699 10.1184 184.11 10.1184C178.522 10.1184 173.992 5.58826 173.992 0H160.52C160.52 5.58826 155.99 10.1184 150.402 10.1184C144.813 10.1184 140.283 5.58826 140.283 0H126.811C126.811 5.58826 122.281 10.1184 116.693 10.1184C111.105 10.1184 106.575 5.58826 106.575 0H93.1028C93.1028 5.58826 88.5726 10.1184 82.9844 10.1184C77.3961 10.1184 72.866 5.58826 72.866 0H59.3942C59.3942 5.58826 54.864 10.1184 49.2758 10.1184C43.6875 10.1184 39.162 5.58826 39.162 0H25.6902C25.6902 5.58826 21.16 10.1184 15.5718 10.1184C9.98352 10.1184 5.4557 5.58826 5.4557 0H0V5.4557C0 16.5 0 10.9117 0 16.5C0 22.0883 0 16.5 0 25.6902V39.162C0 48.5 0 42.9117 0 48.5C0 54.0883 0 48.5 0 59.3988V72.8706C0 82.5 0 76.9118 0 82.5C0 88.0883 0 82.5 0 93.1074V106.579C0 116.5 0 110.911 0 116.5C0 122.088 0 116.5 0 126.816V140.288C0 150 0 144.412 0 150C0 155.589 0 150 0 160.525V173.997C0 184 0 178.412 0 184C0 189.588 0 184 0 194.233V207.705C0 218.5 0 212.911 0 218.5C0 224.088 0 218.5 0 227.942V233.398H5.4557C15.5 233.398 9.91175 233.398 15.5 233.398C21.0883 233.398 15.5 233.398 25.6925 233.398H39.1643C49.5 233.398 43.9118 233.398 49.5 233.398C55.0883 233.398 49.5 233.398 59.4011 233.398H72.873C83 233.398 77.4117 233.398 83 233.398C88.5882 233.398 83 233.398 93.1098 233.398H106.582C116.5 233.398 110.912 233.398 116.5 233.398C122.088 233.398 116.5 233.398 126.818 233.398H140.29C150.5 233.398 144.911 233.398 150.5 233.398C156.088 233.398 150.5 233.398 160.527 233.398H173.999C184 233.398 178.412 233.398 184 233.398C189.589 233.398 184 233.398 194.236 233.398H207.707C218 233.398 212.412 233.398 218 233.398C223.588 233.398 218 233.398 227.944 233.398H233.4V227.942C233.393 217.824 233.393 223.412 233.393 217.824Z" fill="#e92f46"/>
<path d="M466.393 217.824C466.393 212.236 466.393 217.824 466.393 207.703V194.231C466.393 184.5 466.393 190.088 466.393 184.5C466.393 178.911 466.393 184.5 466.393 173.994V160.522C466.393 150 466.393 155.588 466.393 150C466.393 144.412 466.393 150 466.393 140.286V126.814C466.393 116.5 466.393 122.089 466.393 116.5C466.393 110.912 466.393 116.5 466.393 106.577V93.1051C466.393 83 466.393 88.5883 466.393 83C466.393 77.4117 466.393 83 466.393 72.8683V59.3965C466.393 49 466.393 54.5882 466.393 49C466.393 43.4117 466.393 49 466.393 39.1597V25.6879C466.393 16.5 466.393 20.5882 466.393 15C466.393 9.41169 466.393 15 466.393 5.45105V0H460.937C460.937 5.58826 456.407 10.1184 450.819 10.1184C445.231 10.1184 440.7 5.58826 440.7 0H427.229C427.229 5.58826 422.699 10.1184 417.11 10.1184C411.522 10.1184 406.992 5.58826 406.992 0H393.52C393.52 5.58826 388.99 10.1184 383.402 10.1184C377.813 10.1184 373.283 5.58826 373.283 0H359.811C359.811 5.58826 355.281 10.1184 349.693 10.1184C344.105 10.1184 339.575 5.58826 339.575 0H326.103C326.103 5.58826 321.573 10.1184 315.984 10.1184C310.396 10.1184 305.866 5.58826 305.866 0H292.394C292.394 5.58826 287.864 10.1184 282.276 10.1184C276.687 10.1184 272.162 5.58826 272.162 0H258.69C258.69 5.58826 254.16 10.1184 248.572 10.1184C242.984 10.1184 238.456 5.58826 238.456 0H233V5.4557C233 16.5 233 10.9117 233 16.5C233 22.0883 233 16.5 233 25.6902V39.162C233 48.5 233 42.9117 233 48.5C233 54.0883 233 48.5 233 59.3988V72.8706C233 82.5 233 76.9118 233 82.5C233 88.0883 233 82.5 233 93.1074V106.579C233 116.5 233 110.911 233 116.5C233 122.088 233 116.5 233 126.816V140.288C233 150 233 144.412 233 150C233 155.589 233 150 233 160.525V173.997C233 184 233 178.412 233 184C233 189.588 233 184 233 194.233V207.705C233 218.5 233 212.911 233 218.5C233 224.088 233 218.5 233 227.942V233.398H238.456C248.5 233.398 242.912 233.398 248.5 233.398C254.088 233.398 248.5 233.398 258.692 233.398H272.164C282.5 233.398 276.912 233.398 282.5 233.398C288.088 233.398 282.5 233.398 292.401 233.398H305.873C316 233.398 310.412 233.398 316 233.398C321.588 233.398 316 233.398 326.11 233.398H339.582C349.5 233.398 343.912 233.398 349.5 233.398C355.088 233.398 349.5 233.398 359.818 233.398H373.29C383.5 233.398 377.911 233.398 383.5 233.398C389.088 233.398 383.5 233.398 393.527 233.398H406.999C417 233.398 411.412 233.398 417 233.398C422.589 233.398 417 233.398 427.236 233.398H440.707C451 233.398 445.412 233.398 451 233.398C456.588 233.398 451 233.398 460.944 233.398H466.4V227.942C466.393 217.824 466.393 223.412 466.393 217.824Z" fill="#e92f46"/>
<path d="M699.393 217.824C699.393 212.236 699.393 217.824 699.393 207.703V194.231C699.393 184.5 699.393 190.088 699.393 184.5C699.393 178.911 699.393 184.5 699.393 173.994V160.522C699.393 150 699.393 155.588 699.393 150C699.393 144.412 699.393 150 699.393 140.286V126.814C699.393 116.5 699.393 122.089 699.393 116.5C699.393 110.912 699.393 116.5 699.393 106.577V93.1051C699.393 83 699.393 88.5883 699.393 83C699.393 77.4117 699.393 83 699.393 72.8683V59.3965C699.393 49 699.393 54.5882 699.393 49C699.393 43.4117 699.393 49 699.393 39.1597V25.6879C699.393 16.5 699.393 20.5882 699.393 15C699.393 9.41169 699.393 15 699.393 5.45105V0H693.937C693.937 5.58826 689.407 10.1184 683.819 10.1184C678.231 10.1184 673.7 5.58826 673.7 0H660.229C660.229 5.58826 655.699 10.1184 650.11 10.1184C644.522 10.1184 639.992 5.58826 639.992 0H626.52C626.52 5.58826 621.99 10.1184 616.402 10.1184C610.813 10.1184 606.283 5.58826 606.283 0H592.811C592.811 5.58826 588.281 10.1184 582.693 10.1184C577.105 10.1184 572.575 5.58826 572.575 0H559.103C559.103 5.58826 554.573 10.1184 548.984 10.1184C543.396 10.1184 538.866 5.58826 538.866 0H525.394C525.394 5.58826 520.864 10.1184 515.276 10.1184C509.687 10.1184 505.162 5.58826 505.162 0H491.69C491.69 5.58826 487.16 10.1184 481.572 10.1184C475.984 10.1184 471.456 5.58826 471.456 0H466V5.4557C466 16.5 466 10.9117 466 16.5C466 22.0883 466 16.5 466 25.6902V39.162C466 48.5 466 42.9117 466 48.5C466 54.0883 466 48.5 466 59.3988V72.8706C466 82.5 466 76.9118 466 82.5C466 88.0883 466 82.5 466 93.1074V106.579C466 116.5 466 110.911 466 116.5C466 122.088 466 116.5 466 126.816V140.288C466 150 466 144.412 466 150C466 155.589 466 150 466 160.525V173.997C466 184 466 178.412 466 184C466 189.588 466 184 466 194.233V207.705C466 218.5 466 212.911 466 218.5C466 224.088 466 218.5 466 227.942V233.398H471.456C481.5 233.398 475.912 233.398 481.5 233.398C487.088 233.398 481.5 233.398 491.692 233.398H505.164C515.5 233.398 509.912 233.398 515.5 233.398C521.088 233.398 515.5 233.398 525.401 233.398H538.873C549 233.398 543.412 233.398 549 233.398C554.588 233.398 549 233.398 559.11 233.398H572.582C582.5 233.398 576.912 233.398 582.5 233.398C588.088 233.398 582.5 233.398 592.818 233.398H606.29C616.5 233.398 610.911 233.398 616.5 233.398C622.088 233.398 616.5 233.398 626.527 233.398H639.999C650 233.398 644.412 233.398 650 233.398C655.589 233.398 650 233.398 660.236 233.398H673.707C684 233.398 678.412 233.398 684 233.398C689.588 233.398 684 233.398 693.944 233.398H699.4V227.942C699.393 217.824 699.393 223.412 699.393 217.824Z" fill="#e92f46"/>
<path d="M932.393 217.824C932.393 212.236 932.393 217.824 932.393 207.703V194.231C932.393 184.5 932.393 190.088 932.393 184.5C932.393 178.911 932.393 184.5 932.393 173.994V160.522C932.393 150 932.393 155.588 932.393 150C932.393 144.412 932.393 150 932.393 140.286V126.814C932.393 116.5 932.393 122.089 932.393 116.5C932.393 110.912 932.393 116.5 932.393 106.577V93.1051C932.393 83 932.393 88.5883 932.393 83C932.393 77.4117 932.393 83 932.393 72.8683V59.3965C932.393 49 932.393 54.5882 932.393 49C932.393 43.4117 932.393 49 932.393 39.1597V25.6879C932.393 16.5 932.393 20.5882 932.393 15C932.393 9.41169 932.393 15 932.393 5.45105V0H926.937C926.937 5.58826 922.407 10.1184 916.819 10.1184C911.231 10.1184 906.7 5.58826 906.7 0H893.229C893.229 5.58826 888.699 10.1184 883.11 10.1184C877.522 10.1184 872.992 5.58826 872.992 0H859.52C859.52 5.58826 854.99 10.1184 849.402 10.1184C843.813 10.1184 839.283 5.58826 839.283 0H825.811C825.811 5.58826 821.281 10.1184 815.693 10.1184C810.105 10.1184 805.575 5.58826 805.575 0H792.103C792.103 5.58826 787.573 10.1184 781.984 10.1184C776.396 10.1184 771.866 5.58826 771.866 0H758.394C758.394 5.58826 753.864 10.1184 748.276 10.1184C742.687 10.1184 738.162 5.58826 738.162 0H724.69C724.69 5.58826 720.16 10.1184 714.572 10.1184C708.984 10.1184 704.456 5.58826 704.456 0H699V5.4557C699 16.5 699 10.9117 699 16.5C699 22.0883 699 16.5 699 25.6902V39.162C699 48.5 699 42.9117 699 48.5C699 54.0883 699 48.5 699 59.3988V72.8706C699 82.5 699 76.9118 699 82.5C699 88.0883 699 82.5 699 93.1074V106.579C699 116.5 699 110.911 699 116.5C699 122.088 699 116.5 699 126.816V140.288C699 150 699 144.412 699 150C699 155.589 699 150 699 160.525V173.997C699 184 699 178.412 699 184C699 189.588 699 184 699 194.233V207.705C699 218.5 699 212.911 699 218.5C699 224.088 699 218.5 699 227.942V233.398H704.456C714.5 233.398 708.912 233.398 714.5 233.398C720.088 233.398 714.5 233.398 724.692 233.398H738.164C748.5 233.398 742.912 233.398 748.5 233.398C754.088 233.398 748.5 233.398 758.401 233.398H771.873C782 233.398 776.412 233.398 782 233.398C787.588 233.398 782 233.398 792.11 233.398H805.582C815.5 233.398 809.912 233.398 815.5 233.398C821.088 233.398 815.5 233.398 825.818 233.398H839.29C849.5 233.398 843.911 233.398 849.5 233.398C855.088 233.398 849.5 233.398 859.527 233.398H872.999C883 233.398 877.412 233.398 883 233.398C888.589 233.398 883 233.398 893.236 233.398H906.707C917 233.398 911.412 233.398 917 233.398C922.588 233.398 917 233.398 926.944 233.398H932.4V227.942C932.393 217.824 932.393 223.412 932.393 217.824Z" fill="#e92f46"/>
</g>
<defs>
<clipPath id="clip0_1417_3524">
<rect width="932" height="28" fill="white"/>
</clipPath>
</defs>
</svg>
